<svg xmlns="http://www.w3.org/2000/svg" width="169.776" height="61" viewBox="0 0 169.776 61">
  <g id="logo_vecto_-_pas_d_origine" data-name="logo vecto - pas d&apos;origine" transform="translate(0 0.01)">
    <path id="Tracé_18273" data-name="Tracé 18273" d="M670.805,542.783c-2.266.9-4.509,1.873-6.811,2.671-1.388.494-2,.025-2.179-1.438a32.057,32.057,0,0,1-.153-3.444c-.027-2.572-1.161-3.619-3.676-3.36a2.417,2.417,0,0,1-.729.074c-1.522-.341-2.347.455-3.251,1.581a21.4,21.4,0,0,1-3.953,3.758,3.566,3.566,0,0,1-2.678.408c-.741-.18-1.329-1.028-2.063-1.645a8.887,8.887,0,0,1-2.223.39c-.786-.035-1.235-.623-.845-1.5a9.171,9.171,0,0,1,3.987-4.521,1.807,1.807,0,0,1,2.52.511,3.857,3.857,0,0,1,.277,2.4c-.079.605-1.393,1.248-.336,1.764a3.38,3.38,0,0,0,2.839-.171,12.465,12.465,0,0,0,2.527-2.829c.2-.247.45-.615.4-.867-.284-1.339.62-2.06,1.393-2.826,1.1-1.094,2.256-2.142,3.409-3.184a3.275,3.275,0,0,1,.917-.338l-3.192,4.565a12.241,12.241,0,0,0,2.515.3c3.782-.42,4.279,1.433,4.558,4.516.072.773-.045,1.564,0,2.342.074,1.344.494,1.742,1.806,1.408a26.039,26.039,0,0,0,4.284-1.455,36.052,36.052,0,0,0,9.949-6.253,25.707,25.707,0,0,0,3.548-4.548,51.753,51.753,0,0,1,8.051-9.141,5.085,5.085,0,0,1,2.075-1.127,5.227,5.227,0,0,1-.459,1,107,107,0,0,1-10.07,11.947,67.439,67.439,0,0,0-5.361,6.88,3.828,3.828,0,0,0-.3.766c4.4-.647,8.175-2.515,12.318-3.9a11.643,11.643,0,0,0-.7,1.181c-.23.519-.385,1.067-.571,1.6.605-.039,1.327.119,1.8-.156,2.189-1.248,4.311-2.658,6.495-3.965a12.861,12.861,0,0,1,1.952-.778l.247.292q-1.075,2.431-2.144,4.864l.4.287c.687-.494,1.366-.976,2.058-1.453q3.587-2.471,7.184-4.941a2.019,2.019,0,0,1,.65-.346c.494-.111,1.015-.161,1.524-.247a7.247,7.247,0,0,1,.222,1.744,7.686,7.686,0,0,1-.568,1.677l.264.222c.766-.548,1.512-1.129,2.3-1.638a34.742,34.742,0,0,1,3.385-2.013,1.921,1.921,0,0,1,1.675-.081c.618.511.3,1.252-.158,1.87-.877,1.188-1.729,2.4-2.582,3.6a1.023,1.023,0,0,0-.1.81c.655-.247,1.322-.44,1.962-.709,2.031-.857,4.034-1.789,6.085-2.6,1.893-.741,2.374-.494,3.128,1.384.674,1.675,1.527,2.112,3.251,1.729,4.524-1.015,9.05-2.014,13.622-3.029.677.82.092,1.122-.593,1.3-2.893.771-5.791,1.517-8.686,2.27-1.747.457-3.476.988-5.24,1.341-1.621.319-3.313.534-4.482-1.1a3.324,3.324,0,0,1-.571-1.211c-.371-1.779-.926-2-2.574-1.164-2.189,1.119-4.425,2.169-6.648,3.184a10.613,10.613,0,0,1-1.976.494c-.576-1.151.168-1.761.655-2.424.867-1.186,1.766-2.349,2.651-3.521l-.282-.321a10.2,10.2,0,0,0-1.366.766c-2.164,1.695-4.291,3.439-6.465,5.119a5.275,5.275,0,0,1-1.843.788c.66-2.283,2.488-4.1,2.572-6.539l-.3-.306c-.966.63-1.976,1.215-2.888,1.9-2.068,1.544-4.052,3.212-6.176,4.677a7.529,7.529,0,0,1-2.471.64,16.137,16.137,0,0,1,.494-2.4,25.064,25.064,0,0,1,1.287-2.611l-.247-.284c-1.206.842-2.384,1.729-3.624,2.513a29.061,29.061,0,0,1-3.938,2.223,7.507,7.507,0,0,1-2.438.175c-.037-.741-.074-1.482-.116-2.3-1.707.623-3.6,1.327-5.5,2-1.193.425-2.411.778-3.6,1.211a1.667,1.667,0,0,0-1.005,2.663,6.677,6.677,0,0,1,.548,6.789c-1.154,2.545-2.169,5.188-5.188,6.226-1.695-1.566-1.094-3.459-.6-5.188.578-2.043,1.43-4.01,2.172-6.008a2.634,2.634,0,0,0-1.633-2.878c-.351-.067-.692-.173-1.01-.247.227-.679.42-1.255.618-1.828,1.319-.111,2.634-.208,3.953-.353.348-.039.828-.126.988-.368.778-1.132,1.468-2.322,2.189-3.493l-.217-.133Zm3.177,5.593c-.875,2.668-2.243,5.005-1.223,7.878C674.857,554.152,675.539,550.773,673.982,548.376Zm-28.905-8.4,1.8-1.621c-.41-.274-.934-.855-1.206-.756a3.641,3.641,0,0,0-1.4,1.235c-.062.064.393.558.8,1.141Z" transform="translate(-571.804 -511.62)"/>
    <path id="Tracé_18274" data-name="Tracé 18274" d="M357.56,582.51c.343-1.03.618-2.088,1.038-3.083a54.9,54.9,0,0,1,10.391-16.649,16.977,16.977,0,0,1,6.917-4.316,7.537,7.537,0,0,1,5.3.336,37.722,37.722,0,0,1,9.272,5.069,12.062,12.062,0,0,1,.944.791c.46.43,1.028.964.267,1.482a1.8,1.8,0,0,1-1.574.1c-1.747-.988-3.338-2.265-5.126-3.16a41.906,41.906,0,0,0-7.333-3.068,7.44,7.44,0,0,0-5.645,1.2c-3.422,1.976-5.638,5.119-7.757,8.3a49.119,49.119,0,0,0-6.06,12.627,3.011,3.011,0,0,1-.269.494Z" transform="translate(-357.56 -539.703)"/>
    <path id="Tracé_18275" data-name="Tracé 18275" d="M616.841,489.8h4.892c-.262-1.416.719-2.965-1.087-4.049h3.323a10.1,10.1,0,0,0-.588,2.162c-.086,1.766-.079,3.543,0,5.312a6.307,6.307,0,0,0,.625,1.729h-3.187c1.66-1.2.556-2.841.988-4.346h-4.716c-.6,2.073-.294,3.671.818,4.415H614.7a11.31,11.31,0,0,0,.519-2.223c.079-1.685.079-3.38,0-5.065a8.593,8.593,0,0,0-.576-1.947h3.271C616.152,486.8,617.143,488.349,616.841,489.8Z" transform="translate(-551.128 -485.214)"/>
    <path id="Tracé_18276" data-name="Tracé 18276" d="M811.764,490.861l3.239,4.4a2.691,2.691,0,0,1-2.673-.919c-.645-.788-1.1-1.729-1.729-2.54a6.963,6.963,0,0,0-1.285-1.008c-.494,2.53-.3,3.55.8,4.323h-3.219a10.288,10.288,0,0,0,.551-2.125,49.889,49.889,0,0,0,0-5.052,8.451,8.451,0,0,0-.585-1.976c1.208,0,2.757-.054,4.3.017a2.306,2.306,0,0,1,2.359,1.808,2.258,2.258,0,0,1-1.3,2.656,4.142,4.142,0,0,0-.455.42Zm-2.646-.544c1.67.311,2.505-.156,2.718-1.406a2.036,2.036,0,0,0-1.729-2.508c-.321-.015-.921.4-.946.662A30.422,30.422,0,0,0,809.118,490.318Z" transform="translate(-695.859 -485.357)"/>
    <path id="Tracé_18277" data-name="Tracé 18277" d="M577.35,593.413c.452-.877.949-1.729,1.336-2.639a15.477,15.477,0,0,0,.494-1.838,4.042,4.042,0,0,1,.422-1.136c1.22-1.813,2.471-3.6,3.706-5.4a19.269,19.269,0,0,1,1.527-2.1c.212-.232.941-.368,1.1-.21a10.791,10.791,0,0,1,2.569,3c.583,1.381-.677,2.458-1.712,3.078a23.765,23.765,0,0,1-5.534,2.545c-1.344.39-1.767,1.27-2.293,2.256-.457.855-.892,1.729-1.339,2.587Zm7.058-11.446c-.917,1.46-1.663,2.577-2.327,3.74-.346.61.044.86.61.7a27.085,27.085,0,0,0,3.212-1.1c.247-.109.544-.828.425-1.008A23.569,23.569,0,0,0,584.408,581.967Z" transform="translate(-523.05 -556.197)"/>
    <path id="Tracé_18278" data-name="Tracé 18278" d="M521.787,490.955l3.306,4.412a2.589,2.589,0,0,1-2.718-.912c-.6-.719-1.01-1.6-1.6-2.332a6.473,6.473,0,0,0-1.26-.961,5.214,5.214,0,0,0-.343,1.317c0,.988-.415,2.179,1.327,2.784h-3.523a11.14,11.14,0,0,0,.578-2.223,47.409,47.409,0,0,0,0-5.062,6.978,6.978,0,0,0-.635-1.828c1.337,0,2.992-.074,4.637.027a2.122,2.122,0,0,1,2.028,1.71,2.244,2.244,0,0,1-1.151,2.616A7.089,7.089,0,0,0,521.787,490.955Zm-2.624-.462c1.781.247,2.569-.247,2.718-1.495a2.016,2.016,0,0,0-1.771-2.471,1.206,1.206,0,0,0-.912.724C519.092,488.317,519.163,489.369,519.163,490.493Z" transform="translate(-477.55 -485.495)"/>
    <path id="Tracé_18279" data-name="Tracé 18279" d="M463.652,494.505a4.658,4.658,0,0,1-4.924-4.852,4.808,4.808,0,0,1,5.082-4.884,4.672,4.672,0,0,1,4.867,4.929A4.788,4.788,0,0,1,463.652,494.505Zm3.133-4.521.18-.057a24.307,24.307,0,0,0-.917-3.024,2.564,2.564,0,0,0-2.8-1.584,2.476,2.476,0,0,0-2.327,2.06,11.154,11.154,0,0,0-.1,3.634A3.179,3.179,0,0,0,464.027,494c1.571-.1,2.574-1.349,2.718-3.4C466.765,490.394,466.772,490.189,466.784,489.984Z" transform="translate(-433.734 -484.475)"/>
    <path id="Tracé_18280" data-name="Tracé 18280" d="M391.574,616.022c-.077-.287-.136-.38-.111-.435,1.895-4.264,7.824-7.352,12.377-6.438,1.324.264,2.653.529,3.953.909.366.109.9.687.85.954-.141.726-.615,1.04-1.534.946-3-.309-5.976-1.136-9.032-.494a9.916,9.916,0,0,0-4.988,2.925C392.579,614.878,392.122,615.414,391.574,616.022Z" transform="translate(-383.083 -578.006)"/>
    <path id="Tracé_18281" data-name="Tracé 18281" d="M860.922,493.048c-.225,1.976-.225,1.976-1.994,1.976-1.806,0-3.612,0-5.578-.094,1.455-.316,1.161-1.379,1.171-2.293,0-1.645.057-3.293-.025-4.941a8.659,8.659,0,0,0-.568-1.947h6.006c.086.608.166,1.191.247,1.776l-.274.329c-.41-1.774-1.663-1.584-2.839-1.606-.605,0-.922.178-.9.84.03.86,0,1.729,0,2.668,1.122.1,2.223.585,2.965-1.171v2.965c-.529-1.547-1.762-.949-2.918-1.06,0,1.1-.057,2.12.037,3.12a1.243,1.243,0,0,0,.741.8,3.058,3.058,0,0,0,3.533-1.2A1.946,1.946,0,0,1,860.922,493.048Z" transform="translate(-730.864 -485.214)"/>
    <path id="Tracé_18282" data-name="Tracé 18282" d="M670.22,494.876c1.292-.282,1.154-1.27,1.156-2.167,0-1.766.054-3.538-.03-5.3a6.942,6.942,0,0,0-.66-1.848h6.077l.173,1.8c-.741-1.354-1.952-1.364-3.135-1.208-.321.042-.719.511-.833.867a3.212,3.212,0,0,0-.02,1.465c.067.425.279,1.166.452,1.174.741.032,1.677.477,2.184-.536.067-.133.133-.269.373-.741v3.1c-.494-1.628-1.776-1.013-2.965-1.107a8.809,8.809,0,0,0-.057,1.406c.114.87-.437,2,.763,2.485a3.133,3.133,0,0,0,3.651-1.191,1.1,1.1,0,0,1,.3-.183c.072,1.729-.166,2-1.7,1.991C674.049,494.871,672.142,494.876,670.22,494.876Z" transform="translate(-592.977 -485.071)"/>
    <path id="Tracé_18283" data-name="Tracé 18283" d="M570.367,487.446a3.07,3.07,0,0,0-3.32-2.023h-.121c-2.078.225-3.362,2.144-3.13,4.694s1.929,4.341,3.953,3.923a10.468,10.468,0,0,0,2.93-1.65c.176,1.075-.247,1.818-1.613,2.006a10.19,10.19,0,0,1-3.17.047,4.477,4.477,0,0,1-3.992-4.82,4.727,4.727,0,0,1,4.2-4.6,9.925,9.925,0,0,1,2.33-.074C570.5,485.1,570.523,485.154,570.367,487.446Z" transform="translate(-511.418 -484.583)"/>
    <path id="Tracé_18284" data-name="Tracé 18284" d="M715.039,491.769a16.975,16.975,0,0,0,1.08,1.509,1.885,1.885,0,0,0,2.829.232,1.81,1.81,0,0,0-.494-2.683c-.548-.425-1.193-.726-1.757-1.132a2.685,2.685,0,0,1-1.277-3.068,2.727,2.727,0,0,1,2.787-1.813c2.031-.086,2.409.264,2.283,2.416-.3-.469-.42-.862-.672-.988a5.558,5.558,0,0,0-2.026-.783c-.336-.03-1.065.667-1.03.971a3.735,3.735,0,0,0,.845,1.865,5.556,5.556,0,0,0,1.465.877,2.933,2.933,0,0,1,1.606,3.39,2.822,2.822,0,0,1-3.056,1.976,5.306,5.306,0,0,1-1.1-.082C715.061,494.148,714.69,493.51,715.039,491.769Z" transform="translate(-626.631 -484.5)"/>
    <path id="Tracé_18285" data-name="Tracé 18285" d="M756.139,494.391c1.161-.207,1.235-1.04,1.216-1.962-.02-1.687.032-3.377-.025-5.062-.02-.544-.309-1.547-.445-1.542a10.256,10.256,0,0,0-2.54.494c-.247.072-.385.455-.786.6.153-.65.306-1.3.442-1.88h8.615c-.032.556-.072,1.235-.111,1.907-.573-1.3-1.687-1.312-2.782-1.191a1.152,1.152,0,0,0-.786.761c-.062,2.137-.084,4.281,0,6.423.022.494.548.988.828,1.45Z" transform="translate(-655.727 -484.679)"/>
    <path id="Tracé_18286" data-name="Tracé 18286" d="M406.35,644.086a4.607,4.607,0,0,1,6.28-2.28,15.212,15.212,0,0,1,2.49,1.976c.714.573.418,1.127-.02,1.687-.494.645-.963.469-1.581.089a14.579,14.579,0,0,0-3.822-2C408.709,643.3,407.519,643.869,406.35,644.086Z" transform="translate(-394.296 -602.351)"/>
    <path id="Tracé_18287" data-name="Tracé 18287" d="M405.493,492.857c-.2,2.3-.2,2.3-1.989,2.29-1.717,0-3.434,0-5.265-.1,1.176-.376,1.136-1.272,1.131-2.172-.015-1.729.057-3.459-.042-5.188a5.914,5.914,0,0,0-.729-1.771h3.051a7.944,7.944,0,0,0-.7,2.046,35.844,35.844,0,0,0,0,4.805c.039.605.353,1.579.741,1.695.971.287,2.122.511,2.977-.45A12.113,12.113,0,0,0,405.493,492.857Z" transform="translate(-388.19 -485.342)"/>
    <path id="Tracé_18288" data-name="Tracé 18288" d="M534.4,678.18q3.629-8.4,7.251-16.8l.333.133c-.556,1.388-1.114,2.774-1.663,4.165-1.124,2.856-2.317,5.682-3.328,8.588-.4,1.129-.405,2.389-1.317,3.311-.274.279-.529.578-.793.867Z" transform="translate(-490.711 -617.454)"/>
    <path id="Tracé_18289" data-name="Tracé 18289" d="M434.34,486.866c1.418-1.267,1.411-1.265.247-2.332a.919.919,0,0,1-.205-.593c.282-.183.662-.462.917-.388a1.361,1.361,0,0,1,.961,1.729C436.109,486.112,435.541,486.586,434.34,486.866Z" transform="translate(-415.371 -483.55)"/>
    <path id="Tracé_18290" data-name="Tracé 18290" d="M206.19,157.39l3.36-6.71.292.141-3.32,6.7Z" transform="translate(-155.25 -113.461)" fill="#1d1d1b"/>
  </g>
</svg>
